<?xml version="1.0" standalone="no"?>
<!DOCTYPE svg PUBLIC "-//W3C//DTD SVG 20010904//EN"
 "http://www.w3.org/TR/2001/REC-SVG-20010904/DTD/svg10.dtd">
<svg version="1.0" xmlns="http://www.w3.org/2000/svg"
 width="319.000000pt" height="316.000000pt" viewBox="0 0 319.000000 316.000000"
 preserveAspectRatio="xMidYMid meet">

<g transform="translate(0.000000,316.000000) scale(0.100000,-0.100000)"
fill="#FF0000" stroke="none">
<path d="M1481 3135 c-24 -14 -51 -33 -58 -43 -29 -35 -53 -98 -53 -139 l0
-43 -113 0 -114 0 -33 41 c-56 70 -88 79 -295 79 -207 0 -236 -8 -297 -79
l-35 -41 -130 0 c-148 0 -199 -13 -259 -64 -22 -18 -50 -55 -64 -82 l-25 -49
0 -1245 0 -1245 23 -50 c29 -64 55 -91 117 -123 l50 -27 1380 0 1380 0 50 27
c62 32 88 59 117 123 l23 50 0 1245 0 1245 -25 49 c-14 27 -42 64 -64 82 -59
50 -112 64 -248 64 l-118 0 0 43 c-1 77 -47 150 -120 187 -38 19 -59 20 -542
20 l-503 0 -44 -25z m-976 -630 c30 -29 31 -45 4 -79 l-20 -26 -159 0 c-151 0
-160 1 -180 22 -27 30 -25 62 6 87 24 19 40 21 176 21 145 0 150 -1 173 -25z
m1300 -215 c146 -46 232 -93 328 -177 271 -241 363 -590 247 -938 -37 -112
-104 -212 -214 -320 -116 -114 -202 -166 -351 -211 -81 -25 -105 -27 -240 -27
-135 0 -159 2 -240 27 -149 45 -235 97 -351 211 -110 108 -177 208 -214 320
-116 348 -24 697 247 938 98 86 203 142 343 181 87 24 97 25 240 21 106 -2
150 -7 205 -25z m-1328 9 c15 -5 31 -16 35 -22 13 -20 9 -60 -9 -79 -14 -16
-34 -18 -171 -18 -170 0 -192 7 -192 59 0 34 10 48 40 60 34 13 262 14 297 0z"/>
<path d="M1445 2095 c-247 -51 -452 -261 -501 -510 -40 -208 27 -418 185 -576
124 -124 271 -183 451 -182 182 1 315 57 445 187 156 158 222 362 181 567 -49
245 -220 433 -456 503 -78 24 -220 29 -305 11z m173 -174 c8 -4 12 -19 10 -31
-3 -21 -12 -25 -82 -37 -44 -7 -100 -25 -128 -40 -90 -49 -178 -166 -192 -256
-3 -20 -8 -52 -11 -71 -11 -69 -65 -52 -65 21 0 96 70 237 154 309 86 74 268
135 314 105z m37 -320 c100 -56 101 -211 3 -271 -40 -24 -107 -26 -155 -4
-102 49 -113 208 -18 270 54 35 113 37 170 5z"/>
</g>
</svg>
